<?xml version="1.0" encoding="iso-8859-1"?>
<!-- Uploaded to: SVG Repo, www.svgrepo.com, Generator: SVG Repo Mixer Tools -->
<svg width="60.736" height="60.761" version="1.1" id="Layer_1" xmlns="http://www.w3.org/2000/svg" xmlns:xlink="http://www.w3.org/1999/xlink" 
	 viewBox="0 0 512 512" xml:space="preserve">
<path style="fill:#5AC779;" d="M253.871,121.347c-53.705,0-97.397,43.692-97.397,97.397s43.692,97.397,97.397,97.397
	s97.397-43.692,97.397-97.397S307.575,121.347,253.871,121.347z"/>
<path style="fill:#00A085;" d="M286.868,283.143c-53.705,0-97.397-43.692-97.397-97.397c0-18.412,5.137-35.647,14.051-50.348
	c-28.179,17.087-47.049,48.053-47.049,83.346c0,53.705,43.692,97.397,97.397,97.397c35.293,0,66.26-18.869,83.346-47.049
	C322.516,278.006,305.28,283.143,286.868,283.143z"/>
<path style="fill:#AFF078;" d="M283.675,189.472c4.41,0,7.983-3.573,7.983-7.983s-3.573-7.983-7.983-7.983h-21.821v-9.048
	c0-4.41-3.573-7.983-7.983-7.983c-4.41,0-7.983,3.573-7.983,7.983v9.048h-6.919c-10.271,0-18.628,8.357-18.628,18.628v17.031
	c0,10.271,8.357,18.628,18.628,18.628h6.919v22.353h-21.821c-4.41,0-7.983,3.573-7.983,7.983c0,4.41,3.573,7.983,7.983,7.983h21.821
	v9.048c0,4.41,3.573,7.983,7.983,7.983c4.41,0,7.983-3.573,7.983-7.983v-9.048h6.919c10.271,0,18.628-8.357,18.628-18.628v-17.031
	c0-10.271-8.357-18.628-18.628-18.628h-6.919v-22.353H283.675z M268.773,227.792c1.468,0,2.661,1.193,2.661,2.661v17.031
	c0,1.468-1.193,2.661-2.661,2.661h-6.919v-22.353H268.773z M245.887,211.825h-6.919c-1.468,0-2.661-1.193-2.661-2.661v-17.031
	c0-1.468,1.193-2.661,2.661-2.661h6.919V211.825z"/>
<g>
	<path style="fill:#FF7452;" d="M499.744,249.15c-5.42-0.721-19.078-3.737-28.831-16.171c-6.93-8.84-8.592-18.428-8.967-23.355
		c-0.316-4.162-3.786-7.379-7.961-7.379s-7.645,3.216-7.961,7.379c-0.375,4.928-2.037,14.516-8.967,23.355
		c-9.752,12.434-23.411,15.452-28.831,16.171c-3.968,0.527-6.933,3.911-6.933,7.914c0,4.003,2.964,7.386,6.933,7.914
		c5.42,0.721,19.078,3.737,28.831,16.171c6.93,8.84,8.592,18.428,8.967,23.355c0.316,4.162,3.786,7.379,7.961,7.379
		s7.645-3.216,7.961-7.379c0.375-4.928,2.037-14.516,8.966-23.354c9.754-12.436,23.411-15.453,28.832-16.172
		c3.968-0.527,6.933-3.911,6.933-7.914C506.677,253.061,503.713,249.678,499.744,249.15z"/>
	<path style="fill:#FF7452;" d="M299.628,46.905c-5.42-0.721-19.078-3.737-28.831-16.171c-6.93-8.84-8.592-18.428-8.967-23.355
		C261.515,3.216,258.045,0,253.871,0c-4.175,0-7.645,3.216-7.961,7.379c-0.375,4.928-2.037,14.516-8.967,23.355
		c-9.752,12.434-23.411,15.452-28.831,16.171c-3.967,0.528-6.932,3.911-6.932,7.914s2.964,7.386,6.933,7.914
		c5.42,0.721,19.078,3.737,28.831,16.171c6.93,8.84,8.592,18.428,8.967,23.355c0.316,4.162,3.786,7.379,7.961,7.379
		s7.645-3.216,7.961-7.379c0.375-4.928,2.037-14.516,8.966-23.354c9.754-12.436,23.411-15.453,28.832-16.172
		c3.966-0.528,6.931-3.911,6.931-7.914S303.596,47.433,299.628,46.905z"/>
	<path style="fill:#FF7452;" d="M99.512,249.15c-5.419-0.721-19.078-3.738-28.831-16.171c-6.93-8.84-8.592-18.428-8.967-23.355
		c-0.315-4.163-3.785-7.379-7.96-7.379s-7.645,3.216-7.961,7.379c-0.375,4.928-2.037,14.516-8.966,23.354
		c-9.754,12.436-23.411,15.453-28.832,16.172c-3.967,0.528-6.932,3.911-6.932,7.914c0,4.003,2.964,7.386,6.933,7.914
		c5.42,0.721,19.078,3.737,28.831,16.171c6.93,8.84,8.592,18.428,8.967,23.355c0.316,4.162,3.786,7.379,7.961,7.379
		s7.645-3.216,7.961-7.379c0.375-4.928,2.037-14.516,8.966-23.354c9.754-12.436,23.411-15.453,28.832-16.172
		c3.968-0.527,6.933-3.911,6.933-7.914C106.446,253.061,103.48,249.678,99.512,249.15z"/>
</g>
<path style="fill:#FFD652;" d="M502.952,359.784H400.259l-68.76-29.17c-0.986-0.418-2.046-0.634-3.118-0.634H190.703h-1.064
	c-17.637,0-31.933,14.297-31.933,31.933v16.145c0,7.3,2.455,14.024,6.577,19.403c0.067,0.249,0.129,0.5,0.201,0.746l-98.282-42.499
	c-19.932-8.622-42.77,0.03-51.987,19.695l-4.898,10.447c-4.603,9.82-5.038,20.819-1.226,30.972S19.469,434.97,29.4,439.333
	l160.708,70.641c3.056,1.343,6.298,2.025,9.639,2.025h185.118c3.112,0,6.153-0.596,9.036-1.77l112.064-45.656
	c3.005-1.225,4.971-4.147,4.971-7.394v-89.414C510.935,363.358,507.362,359.784,502.952,359.784z"/>
<g>
	<path style="fill:#FB9D46;" d="M157.705,362.895v15.161c0,17.637,14.297,31.933,31.933,31.933h129.53v-15.161h-129.53
		C172.002,394.829,157.705,380.532,157.705,362.895z"/>
	<path style="fill:#FB9D46;" d="M505.964,448.252L393.9,493.909c-2.884,1.174-5.924,1.77-9.036,1.77H199.745
		c-3.34,0-6.583-0.681-9.639-2.025L29.398,423.012c-9.929-4.364-17.496-12.359-21.308-22.512c-0.724-1.929-1.293-3.889-1.712-5.865
		c-1.549,7.339-0.996,14.976,1.712,22.187c3.812,10.154,11.378,18.149,21.308,22.512l160.708,70.641
		c3.056,1.343,6.298,2.025,9.639,2.025h185.118c3.112,0,6.152-0.596,9.036-1.77l112.064-45.656c3.005-1.225,4.971-4.147,4.971-7.394
		v-16.321C510.935,444.105,508.969,447.028,505.964,448.252z"/>
</g>
</svg>